<svg id="visual" viewBox="0 0 900 600" width="900" height="600" xmlns="http://www.w3.org/2000/svg" xmlns:xlink="http://www.w3.org/1999/xlink" version="1.1"><rect x="0" y="0" width="900" height="600" fill="#715DF2"></rect><defs><linearGradient id="grad1_0" x1="33.3%" y1="0%" x2="100%" y2="100%"><stop offset="20%" stop-color="#715df2" stop-opacity="1"></stop><stop offset="80%" stop-color="#715df2" stop-opacity="1"></stop></linearGradient></defs><defs><linearGradient id="grad2_0" x1="0%" y1="0%" x2="66.7%" y2="100%"><stop offset="20%" stop-color="#715df2" stop-opacity="1"></stop><stop offset="80%" stop-color="#715df2" stop-opacity="1"></stop></linearGradient></defs><g transform="translate(900, 0)"><path d="M0 486.7C-51.2 455.1 -102.4 423.4 -168.4 406.5C-234.4 389.7 -315.1 387.6 -344.2 344.2C-373.3 300.7 -350.7 215.8 -365.9 151.5C-381 87.3 -433.9 43.6 -486.7 0L0 0Z" fill="#FBAE3C"></path></g><g transform="translate(0, 600)"><path d="M0 -486.7C51.7 -452 103.4 -417.2 165.3 -399.1C227.3 -381 299.5 -379.7 344.2 -344.2C388.8 -308.7 405.8 -239.1 425 -176C444.1 -113 465.4 -56.5 486.7 0L0 0Z" fill="#FBAE3C"></path></g></svg>