<svg id="visual" viewBox="0 0 900 600" width="900" height="600" xmlns="http://www.w3.org/2000/svg" xmlns:xlink="http://www.w3.org/1999/xlink" version="1.1"><g stroke-width="1" stroke-linejoin="bevel"><path d="M479 312L487 197L383 294Z" fill="#19435d" stroke="#19435d"></path><path d="M487 197L428 170L383 294Z" fill="#1d4e6b" stroke="#1d4e6b"></path><path d="M294 161L316 316L383 294Z" fill="#081a28" stroke="#081a28"></path><path d="M383 294L377 420L479 312Z" fill="#19435d" stroke="#19435d"></path><path d="M428 170L294 161L383 294Z" fill="#205a7a" stroke="#205a7a"></path><path d="M497 78L419 74L428 170Z" fill="#205a7a" stroke="#205a7a"></path><path d="M428 170L322 79L294 161Z" fill="#205a7a" stroke="#205a7a"></path><path d="M316 316L377 420L383 294Z" fill="#00101c" stroke="#00101c"></path><path d="M523 433L614 305L479 312Z" fill="#00101c" stroke="#00101c"></path><path d="M479 312L614 305L487 197Z" fill="#081a28" stroke="#081a28"></path><path d="M487 197L497 78L428 170Z" fill="#297ea6" stroke="#297ea6"></path><path d="M609 133L497 78L487 197Z" fill="#297ea6" stroke="#297ea6"></path><path d="M614 305L620 197L487 197Z" fill="#15384f" stroke="#15384f"></path><path d="M316 316L304 382L377 420Z" fill="#112e42" stroke="#112e42"></path><path d="M199 397L304 382L316 316Z" fill="#297ea6" stroke="#297ea6"></path><path d="M377 420L523 433L479 312Z" fill="#081a28" stroke="#081a28"></path><path d="M620 197L609 133L487 197Z" fill="#1d4e6b" stroke="#1d4e6b"></path><path d="M419 74L322 79L428 170Z" fill="#0c2435" stroke="#0c2435"></path><path d="M523 433L636 397L614 305Z" fill="#112e42" stroke="#112e42"></path><path d="M614 305L704 201L620 197Z" fill="#246688" stroke="#246688"></path><path d="M523 433L560 476L636 397Z" fill="#277297" stroke="#277297"></path><path d="M464 519L560 476L523 433Z" fill="#0c2435" stroke="#0c2435"></path><path d="M419 74L375 0L322 79Z" fill="#19435d" stroke="#19435d"></path><path d="M509 0L375 0L419 74Z" fill="#00101c" stroke="#00101c"></path><path d="M509 0L419 74L497 78Z" fill="#246688" stroke="#246688"></path><path d="M581 0L509 0L497 78Z" fill="#19435d" stroke="#19435d"></path><path d="M730 287L704 201L614 305Z" fill="#1d4e6b" stroke="#1d4e6b"></path><path d="M620 197L679 127L609 133Z" fill="#081a28" stroke="#081a28"></path><path d="M609 133L581 0L497 78Z" fill="#246688" stroke="#246688"></path><path d="M428 521L464 519L377 420Z" fill="#1d4e6b" stroke="#1d4e6b"></path><path d="M377 420L464 519L523 433Z" fill="#15384f" stroke="#15384f"></path><path d="M704 201L679 127L620 197Z" fill="#112e42" stroke="#112e42"></path><path d="M334 500L428 521L377 420Z" fill="#00101c" stroke="#00101c"></path><path d="M304 382L334 500L377 420Z" fill="#297ea6" stroke="#297ea6"></path><path d="M164 82L171 189L294 161Z" fill="#1d4e6b" stroke="#1d4e6b"></path><path d="M294 161L163 289L316 316Z" fill="#15384f" stroke="#15384f"></path><path d="M304 382L199 505L334 500Z" fill="#205a7a" stroke="#205a7a"></path><path d="M164 82L294 161L322 79Z" fill="#297ea6" stroke="#297ea6"></path><path d="M171 189L163 289L294 161Z" fill="#15384f" stroke="#15384f"></path><path d="M163 289L199 397L316 316Z" fill="#081a28" stroke="#081a28"></path><path d="M661 0L581 0L609 133Z" fill="#00101c" stroke="#00101c"></path><path d="M375 0L300 0L322 79Z" fill="#1d4e6b" stroke="#1d4e6b"></path><path d="M636 397L730 287L614 305Z" fill="#081a28" stroke="#081a28"></path><path d="M122 198L138 307L163 289Z" fill="#1d4e6b" stroke="#1d4e6b"></path><path d="M163 289L138 307L199 397Z" fill="#246688" stroke="#246688"></path><path d="M164 82L122 198L171 189Z" fill="#15384f" stroke="#15384f"></path><path d="M171 189L122 198L163 289Z" fill="#246688" stroke="#246688"></path><path d="M226 0L164 82L322 79Z" fill="#19435d" stroke="#19435d"></path><path d="M300 0L226 0L322 79Z" fill="#19435d" stroke="#19435d"></path><path d="M771 116L661 0L679 127Z" fill="#15384f" stroke="#15384f"></path><path d="M679 127L661 0L609 133Z" fill="#081a28" stroke="#081a28"></path><path d="M771 116L679 127L704 201Z" fill="#1d4e6b" stroke="#1d4e6b"></path><path d="M727 501L725 434L636 397Z" fill="#19435d" stroke="#19435d"></path><path d="M636 397L725 434L730 287Z" fill="#19435d" stroke="#19435d"></path><path d="M727 501L636 397L560 476Z" fill="#297ea6" stroke="#297ea6"></path><path d="M428 521L423 600L464 519Z" fill="#112e42" stroke="#112e42"></path><path d="M464 519L568 600L560 476Z" fill="#297ea6" stroke="#297ea6"></path><path d="M334 500L423 600L428 521Z" fill="#0c2435" stroke="#0c2435"></path><path d="M309 600L423 600L334 500Z" fill="#297ea6" stroke="#297ea6"></path><path d="M423 600L475 600L464 519Z" fill="#246688" stroke="#246688"></path><path d="M116 438L199 505L199 397Z" fill="#297ea6" stroke="#297ea6"></path><path d="M199 397L199 505L304 382Z" fill="#112e42" stroke="#112e42"></path><path d="M725 434L787 330L730 287Z" fill="#081a28" stroke="#081a28"></path><path d="M811 210L771 116L704 201Z" fill="#1d4e6b" stroke="#1d4e6b"></path><path d="M811 210L704 201L730 287Z" fill="#1d4e6b" stroke="#1d4e6b"></path><path d="M475 600L568 600L464 519Z" fill="#00101c" stroke="#00101c"></path><path d="M199 505L309 600L334 500Z" fill="#112e42" stroke="#112e42"></path><path d="M787 330L811 210L730 287Z" fill="#081a28" stroke="#081a28"></path><path d="M0 407L116 438L138 307Z" fill="#0c2435" stroke="#0c2435"></path><path d="M138 307L116 438L199 397Z" fill="#00101c" stroke="#00101c"></path><path d="M199 505L160 600L309 600Z" fill="#277297" stroke="#277297"></path><path d="M794 480L782 413L725 434Z" fill="#112e42" stroke="#112e42"></path><path d="M725 434L782 413L787 330Z" fill="#277297" stroke="#277297"></path><path d="M900 308L900 211L811 210Z" fill="#1d4e6b" stroke="#1d4e6b"></path><path d="M704 600L727 501L560 476Z" fill="#00101c" stroke="#00101c"></path><path d="M164 82L108 67L122 198Z" fill="#15384f" stroke="#15384f"></path><path d="M0 407L100 497L116 438Z" fill="#15384f" stroke="#15384f"></path><path d="M125 0L108 67L164 82Z" fill="#19435d" stroke="#19435d"></path><path d="M226 0L125 0L164 82Z" fill="#112e42" stroke="#112e42"></path><path d="M0 318L138 307L122 198Z" fill="#205a7a" stroke="#205a7a"></path><path d="M116 438L100 497L199 505Z" fill="#205a7a" stroke="#205a7a"></path><path d="M811 600L794 480L727 501Z" fill="#0c2435" stroke="#0c2435"></path><path d="M727 501L794 480L725 434Z" fill="#15384f" stroke="#15384f"></path><path d="M900 308L811 210L787 330Z" fill="#277297" stroke="#277297"></path><path d="M900 105L783 0L771 116Z" fill="#205a7a" stroke="#205a7a"></path><path d="M771 116L783 0L661 0Z" fill="#0c2435" stroke="#0c2435"></path><path d="M568 600L704 600L560 476Z" fill="#19435d" stroke="#19435d"></path><path d="M0 181L0 318L122 198Z" fill="#0c2435" stroke="#0c2435"></path><path d="M0 181L122 198L108 67Z" fill="#1d4e6b" stroke="#1d4e6b"></path><path d="M0 72L0 181L108 67Z" fill="#205a7a" stroke="#205a7a"></path><path d="M100 497L160 600L199 505Z" fill="#081a28" stroke="#081a28"></path><path d="M900 308L787 330L900 380Z" fill="#00101c" stroke="#00101c"></path><path d="M811 210L900 105L771 116Z" fill="#277297" stroke="#277297"></path><path d="M900 380L787 330L782 413Z" fill="#00101c" stroke="#00101c"></path><path d="M0 318L0 407L138 307Z" fill="#1d4e6b" stroke="#1d4e6b"></path><path d="M100 497L126 600L160 600Z" fill="#081a28" stroke="#081a28"></path><path d="M0 539L126 600L100 497Z" fill="#0c2435" stroke="#0c2435"></path><path d="M0 0L0 72L108 67Z" fill="#277297" stroke="#277297"></path><path d="M794 480L900 380L782 413Z" fill="#1d4e6b" stroke="#1d4e6b"></path><path d="M900 493L900 380L794 480Z" fill="#00101c" stroke="#00101c"></path><path d="M900 211L900 105L811 210Z" fill="#246688" stroke="#246688"></path><path d="M125 0L0 0L108 67Z" fill="#277297" stroke="#277297"></path><path d="M704 600L811 600L727 501Z" fill="#246688" stroke="#246688"></path><path d="M811 600L900 493L794 480Z" fill="#0c2435" stroke="#0c2435"></path><path d="M900 105L900 0L783 0Z" fill="#0c2435" stroke="#0c2435"></path><path d="M0 407L0 539L100 497Z" fill="#205a7a" stroke="#205a7a"></path><path d="M0 539L0 600L126 600Z" fill="#1d4e6b" stroke="#1d4e6b"></path><path d="M811 600L900 600L900 493Z" fill="#19435d" stroke="#19435d"></path></g></svg>